<svg width="117" height="29" viewBox="0 0 117 29" fill="none" xmlns="http://www.w3.org/2000/svg">
<path d="M44.032 10.472V13.352H51.04V17.624H44.032V23H38.368V6.2H52.024V10.472H44.032ZM53.4109 9.872H58.8349V23H53.4109V9.872ZM56.1229 8.816C55.1469 8.816 54.3549 8.56 53.7469 8.048C53.1549 7.52 52.8589 6.856 52.8589 6.056C52.8589 5.256 53.1549 4.6 53.7469 4.088C54.3549 3.56 55.1469 3.296 56.1229 3.296C57.1149 3.296 57.9069 3.544 58.4989 4.04C59.0909 4.536 59.3869 5.176 59.3869 5.96C59.3869 6.792 59.0909 7.48 58.4989 8.024C57.9069 8.552 57.1149 8.816 56.1229 8.816ZM61.2391 5.192H66.6631V23H61.2391V5.192ZM86.4432 9.632C88.0272 9.632 89.2912 10.12 90.2352 11.096C91.1952 12.072 91.6752 13.544 91.6752 15.512V23H86.2512V16.448C86.2512 14.944 85.7632 14.192 84.7872 14.192C84.2752 14.192 83.8592 14.384 83.5392 14.768C83.2352 15.152 83.0832 15.76 83.0832 16.592V23H77.6592V16.448C77.6592 14.944 77.1712 14.192 76.1952 14.192C75.6832 14.192 75.2672 14.384 74.9472 14.768C74.6432 15.152 74.4912 15.76 74.4912 16.592V23H69.0672V9.872H74.2272V11.096C75.2032 10.12 76.4432 9.632 77.9472 9.632C78.8272 9.632 79.6192 9.8 80.3232 10.136C81.0272 10.456 81.6032 10.952 82.0512 11.624C82.5792 10.984 83.2192 10.496 83.9712 10.16C84.7232 9.808 85.5472 9.632 86.4432 9.632ZM94.0281 5.192H99.4521V23H94.0281V5.192ZM116.472 9.872L111.072 23.264C110.384 24.976 109.528 26.176 108.504 26.864C107.48 27.552 106.224 27.896 104.736 27.896C104 27.896 103.256 27.784 102.504 27.56C101.768 27.352 101.184 27.072 100.752 26.72L102.552 23C102.824 23.208 103.128 23.376 103.464 23.504C103.816 23.632 104.152 23.696 104.472 23.696C105.064 23.696 105.512 23.52 105.816 23.168L100.296 9.872H105.864L108.576 16.904L111.336 9.872H116.472Z" fill="white"/>
<path d="M0 29V0L12.2652 6.58198C13.578 7.29055 14.0371 8.85281 13.2751 10.0821C12.5131 11.3029 10.8331 11.7298 9.51105 11.0212L5.50833 8.86988V20.1216L15.9833 14.4957L15.2948 14.1286C13.982 13.4201 13.523 11.8578 14.2849 10.6285C15.0469 9.40772 16.727 8.98087 18.049 9.68944L27 14.4957L0 29Z" fill="#FFC837"/>
</svg>
