<svg width="16" height="16" viewBox="0 0 16 16" fill="none" xmlns="http://www.w3.org/2000/svg">
<path fill-rule="evenodd" clip-rule="evenodd" d="M1.07071 4.05389C1.40913 3.90885 1.80105 4.06562 1.94609 4.40404L1.33332 4.66665C1.94609 4.40404 1.94618 4.40426 1.94609 4.40404L1.94574 4.40324C1.94555 4.40281 1.94569 4.40312 1.94574 4.40324L1.94835 4.40915C1.95102 4.41516 1.95562 4.42537 1.96214 4.43951C1.97521 4.46779 1.996 4.51171 2.02466 4.56903C2.08203 4.68378 2.17064 4.85162 2.2916 5.05483C2.53427 5.46251 2.90295 6.00548 3.40519 6.54635C3.52357 6.67384 3.64885 6.80072 3.78117 6.92535C3.7867 6.93038 3.79217 6.93552 3.79758 6.94076C4.78736 7.86759 6.1682 8.66665 7.99999 8.66665C8.80596 8.66665 9.51891 8.51278 10.1473 8.26545C10.9646 7.94373 11.6497 7.4594 12.2104 6.93313C12.8435 6.33891 13.3085 5.70001 13.6155 5.20732C13.7684 4.96193 13.8805 4.75544 13.9533 4.61271C13.9896 4.54142 14.0161 4.48627 14.0328 4.45039C14.0411 4.43246 14.0471 4.41937 14.0506 4.4115L14.0539 4.40404C14.199 4.06581 14.5909 3.90889 14.9293 4.05389C15.2677 4.19893 15.4245 4.59085 15.2794 4.92927L14.6667 4.66665C15.2794 4.92927 15.2795 4.92911 15.2794 4.92927L15.278 4.93261L15.2756 4.9381L15.268 4.95533C15.2616 4.96954 15.2527 4.98917 15.2412 5.0138C15.2183 5.06303 15.185 5.13235 15.141 5.21848C15.0533 5.39058 14.9227 5.63071 14.7471 5.91244C14.4787 6.34321 14.1014 6.87745 13.6064 7.41618L14.1381 7.94781C14.3984 8.20816 14.3984 8.63027 14.1381 8.89062C13.8777 9.15097 13.4556 9.15097 13.1953 8.89062L12.6351 8.3305C12.259 8.63433 11.838 8.9209 11.3705 9.16812L11.8921 9.96973C12.0929 10.2783 12.0055 10.6913 11.6969 10.8921C11.3883 11.0929 10.9753 11.0055 10.7745 10.6969L10.1176 9.68723C9.66491 9.82599 9.18133 9.92434 8.66666 9.97043V11C8.66666 11.3682 8.36818 11.6667 7.99999 11.6667C7.6318 11.6667 7.33332 11.3682 7.33332 11V9.97053C6.8169 9.92439 6.33345 9.82586 5.88225 9.6875L5.22545 10.6969C5.02464 11.0055 4.61168 11.0929 4.30307 10.8921C3.99445 10.6913 3.90706 10.2783 4.10787 9.96973L4.62947 9.1681C4.16272 8.92108 3.74166 8.63451 3.36499 8.33035L2.80473 8.89062C2.54438 9.15097 2.12227 9.15097 1.86192 8.89062C1.60157 8.63027 1.60157 8.20816 1.86192 7.94781L2.39355 7.41618C1.83022 6.80301 1.4185 6.19481 1.14588 5.73681C1.00642 5.50252 0.90232 5.30578 0.83209 5.16532C0.79695 5.09504 0.770214 5.0387 0.751701 4.99862C0.742443 4.97857 0.735234 4.96258 0.730053 4.95093L0.723796 4.93674L0.721802 4.93215L0.721087 4.93049L0.7208 4.92983C0.720676 4.92954 0.72056 4.92927 1.33332 4.66665L0.7208 4.92983C0.575763 4.59141 0.73229 4.19893 1.07071 4.05389Z" fill="white"/>
</svg>
