<svg width="16" height="16" viewBox="0 0 16 16" fill="none" xmlns="http://www.w3.org/2000/svg">
<path d="M6.5 7.99999C6.5 7.17156 7.17157 6.49999 8 6.49999C8.82843 6.49999 9.5 7.17156 9.5 7.99999C9.5 8.82842 8.82843 9.49999 8 9.49999C7.17157 9.49999 6.5 8.82842 6.5 7.99999Z" fill="white"/>
<path fill-rule="evenodd" clip-rule="evenodd" d="M1.33333 7.99999C1.33333 9.09291 1.61664 9.46097 2.18326 10.1971C3.31464 11.667 5.21208 13.3333 8 13.3333C10.7879 13.3333 12.6854 11.667 13.8167 10.1971C14.3834 9.46097 14.6667 9.09291 14.6667 7.99999C14.6667 6.90707 14.3834 6.53901 13.8167 5.80288C12.6854 4.33303 10.7879 2.66666 8 2.66666C5.21208 2.66666 3.31464 4.33303 2.18326 5.80288C1.61664 6.53901 1.33333 6.90707 1.33333 7.99999ZM8 5.49999C6.61929 5.49999 5.5 6.61928 5.5 7.99999C5.5 9.3807 6.61929 10.5 8 10.5C9.38071 10.5 10.5 9.3807 10.5 7.99999C10.5 6.61928 9.38071 5.49999 8 5.49999Z" fill="white"/>
</svg>
